<?xml version="1.0" encoding="UTF-8" standalone="no"?>
<svg
   xmlns:dc="http://purl.org/dc/elements/1.1/"
   xmlns:cc="http://creativecommons.org/ns#"
   xmlns:rdf="http://www.w3.org/1999/02/22-rdf-syntax-ns#"
   xmlns:svg="http://www.w3.org/2000/svg"
   xmlns="http://www.w3.org/2000/svg"
   xmlns:sodipodi="http://sodipodi.sourceforge.net/DTD/sodipodi-0.dtd"
   xmlns:inkscape="http://www.inkscape.org/namespaces/inkscape"
   width="18.125in"
   height="6in"
   version="1.1"
   id="svg23"
   sodipodi:docname="1.svg"
   inkscape:version="0.92.2 5c3e80d, 2017-08-06">
  <metadata
     id="metadata29">
    <rdf:RDF>
      <cc:Work
         rdf:about="">
        <dc:format>image/svg+xml</dc:format>
        <dc:type
           rdf:resource="http://purl.org/dc/dcmitype/StillImage" />
        <dc:title></dc:title>
      </cc:Work>
    </rdf:RDF>
  </metadata>
  <defs
     id="defs27" />
  <sodipodi:namedview
     pagecolor="#ffffff"
     bordercolor="#666666"
     borderopacity="1"
     objecttolerance="23"
     gridtolerance="21"
     guidetolerance="22"
     inkscape:pageopacity="0"
     inkscape:pageshadow="2"
     inkscape:window-width="1442"
     inkscape:window-height="783"
     id="namedview25"
     showgrid="false"
     inkscape:measure-start="136.924,428.053"
     inkscape:measure-end="136.924,90.3963"
     inkscape:zoom="0.75224303"
     inkscape:cx="585.51102"
     inkscape:cy="262.09188"
     inkscape:window-x="0"
     inkscape:window-y="0"
     inkscape:window-maximized="0"
     inkscape:current-layer="Tue Jul 30 12:24:42 2019"
     units="in" />
  <g
     inkscape:groupmode="layer"
     id="Tue Jul 30 12:24:42 2019"
     transform="translate(-104.55839,-163.79434)">
    <g
       id="render_body.005"
       transform="matrix(1.891626,0,0,1.891626,-24.136243,-672.03303)"
       style="fill:none;stroke:#ff0000;stroke-opacity:1">
      <!-- start render_body.005 -->
      <g
         id="caras_bordes.render_body.005"
         style="fill:none;stroke:#ff0000;stroke-opacity:1">
        <path
           style="opacity:0.9;fill:none;stroke:#ff0000;stroke-opacity:1"
           d="M 68.033868,499.2945 V 446.3032 H 213.2737 326.1725 l 67.8457,34.8043 h 203.5372 l 83.3144,-19.3358 h 298.13835 8.2788 v 37.5228 l 10e-5,183.62451 -750.88163,1e-5 -21.14583,35.9479 H 68.033868 Z"
           id="polygon18"
           inkscape:connector-curvature="0"
           sodipodi:nodetypes="ccccccccccccccc" />
      </g>
    </g>
    <!-- end render_body.005 -->
    <path
       style="fill:none;fill-opacity:1;stroke:#ff0000;stroke-width:1.12706351;stroke-opacity:1"
       d="m 178.15019,193.66469 -45.26758,48.69336 V 641.20234 H 371.75566 V 270.47329 h 206.9082 v -76.8086 z"
       id="rect4569"
       inkscape:connector-curvature="0"
       sodipodi:nodetypes="cccccccc" />
    <path
       style="fill:none;fill-opacity:1;stroke:#ff0000;stroke-width:0.93610466;stroke-opacity:1"
       d="M 383.08426,291.21509 H 1810.9483 v 263.0639 H 383.05439 Z"
       id="rect4587"
       inkscape:connector-curvature="0"
       sodipodi:nodetypes="ccccc" />
    <path
       style="fill:none;fill-opacity:1;stroke:#ff0000;stroke-width:0.61159652;stroke-opacity:1"
       d="m 140.57259,200.36572 a 7.8542018,7.8542018 0 0 1 -7.85421,7.8542 7.8542018,7.8542018 0 0 1 -7.8542,-7.8542 7.8542018,7.8542018 0 0 1 7.8542,-7.8542 7.8542018,7.8542018 0 0 1 7.85421,7.8542 z"
       id="path4589"
       inkscape:connector-curvature="0" />
    <path
       style="fill:none;fill-opacity:1;stroke:#ff0000;stroke-width:0.61159652;stroke-opacity:1"
       d="m 140.57259,663.63428 a 7.8542018,7.8542018 0 0 1 -7.85421,7.8542 7.8542018,7.8542018 0 0 1 -7.8542,-7.8542 7.8542018,7.8542018 0 0 1 7.8542,-7.8542 7.8542018,7.8542018 0 0 1 7.85421,7.8542 z"
       id="circle70"
       inkscape:connector-curvature="0" />
    <path
       style="fill:none;fill-opacity:1;stroke:#ff0000;stroke-width:0.61159652;stroke-opacity:1"
       d="m 1833.1358,229.52673 a 7.8542018,7.8542018 0 0 1 -7.8542,7.85421 7.8542018,7.8542018 0 0 1 -7.8542,-7.85421 7.8542018,7.8542018 0 0 1 7.8542,-7.8542 7.8542018,7.8542018 0 0 1 7.8542,7.8542 z"
       id="circle72"
       inkscape:connector-curvature="0" />
    <circle
       r="0"
       cx="132.71838"
       cy="543.63428"
       style="fill:none;fill-opacity:1;stroke:#ff0000;stroke-width:0.61159652;stroke-opacity:1"
       id="ellipse76" />
    <circle
       r="0"
       cx="132.71838"
       cy="543.63428"
       style="fill:none;fill-opacity:1;stroke:#ff0000;stroke-width:0.61159652;stroke-opacity:1"
       id="ellipse78" />
    <path
       style="fill:none;fill-opacity:1;stroke:#ff0000;stroke-width:0.61159652;stroke-opacity:1"
       d="m 1833.1358,543.63428 a 7.8542018,7.8542018 0 0 1 -7.8542,7.8542 7.8542018,7.8542018 0 0 1 -7.8542,-7.8542 7.8542018,7.8542018 0 0 1 7.8542,-7.8542 7.8542018,7.8542018 0 0 1 7.8542,7.8542 z"
       id="circle80"
       inkscape:connector-curvature="0" />
    <path
       style="fill:none;fill-opacity:1;stroke:#ff0000;stroke-width:0.99874997;stroke-opacity:1"
       d="m 1353.0577,218.49374 h 395.0013 v 52.80125 h -395.0013 z"
       id="rect18"
       inkscape:connector-curvature="0" />
  </g>
</svg>
