<?xml version="1.0" encoding="UTF-8" standalone="no"?>
<svg
   xmlns:dc="http://purl.org/dc/elements/1.1/"
   xmlns:cc="http://creativecommons.org/ns#"
   xmlns:rdf="http://www.w3.org/1999/02/22-rdf-syntax-ns#"
   xmlns:svg="http://www.w3.org/2000/svg"
   xmlns="http://www.w3.org/2000/svg"
   xmlns:sodipodi="http://sodipodi.sourceforge.net/DTD/sodipodi-0.dtd"
   xmlns:inkscape="http://www.inkscape.org/namespaces/inkscape"
   width="19in"
   height="5.75in"
   version="1.1"
   id="svg23"
   sodipodi:docname="2-3.svg"
   inkscape:version="0.92.2 5c3e80d, 2017-08-06">
  <metadata
     id="metadata29">
    <rdf:RDF>
      <cc:Work
         rdf:about="">
        <dc:format>image/svg+xml</dc:format>
        <dc:type
           rdf:resource="http://purl.org/dc/dcmitype/StillImage" />
        <dc:title />
      </cc:Work>
    </rdf:RDF>
  </metadata>
  <defs
     id="defs27" />
  <sodipodi:namedview
     pagecolor="#ffffff"
     bordercolor="#666666"
     borderopacity="1"
     objecttolerance="23"
     gridtolerance="21"
     guidetolerance="22"
     inkscape:pageopacity="0"
     inkscape:pageshadow="2"
     inkscape:window-width="1440"
     inkscape:window-height="786"
     id="namedview25"
     showgrid="false"
     inkscape:measure-start="36.0142,511.429"
     inkscape:measure-end="36.0142,28.16"
     inkscape:zoom="1"
     inkscape:cx="140.59189"
     inkscape:cy="291.97446"
     inkscape:window-x="1"
     inkscape:window-y="0"
     inkscape:window-maximized="0"
     inkscape:current-layer="Tue Jul 30 12:24:42 2019"
     units="in" />
  <g
     inkscape:groupmode="layer"
     id="Tue Jul 30 12:24:42 2019"
     transform="translate(-104.55839,-187.7943)">
    <g
       id="render_body.005"
       transform="matrix(1.891626,0,0,1.891626,-24.136243,-644.03303)"
       style="fill:none;stroke:#ff0000;stroke-opacity:1">
      <!-- start render_body.005 -->
      <g
         id="caras_bordes.render_body.005"
         style="fill:none;stroke:#ff0000;stroke-opacity:1">
        <path
           style="opacity:0.9;fill:none;stroke:#ff0000;stroke-opacity:1"
           d="m 68.033868,499.2945 v -52.9913 h 187.531492 112.8988 l 67.8457,34.8043 h 203.5372 l 83.3144,-19.3358 h 298.13834 8.2788 v 37.5228 l 10e-5,158.2495 H 268.12416 v 74.0104 H 68.033868 Z"
           id="polygon18"
           inkscape:connector-curvature="0"
           sodipodi:nodetypes="ccccccccccccccc" />
      </g>
    </g>
    <!-- end render_body.005 -->
    <path
       style="fill:none;fill-opacity:1;stroke:#ff0000;stroke-width:1.12706351;stroke-opacity:1"
       d="m 178.15019,221.66469 -45.26758,48.69336 V 689.2023 H 451.75566 V 298.47329 h 206.9082 v -76.8086 z"
       id="rect4569"
       inkscape:connector-curvature="0"
       sodipodi:nodetypes="cccccccc" />
    <path
       style="fill:none;fill-opacity:1;stroke:#ff0000;stroke-width:0.93610466;stroke-opacity:1"
       d="M 463.08426,319.21509 1890.9483,319.1863 V 582.27899 H 463.08426 Z"
       id="rect4587"
       inkscape:connector-curvature="0"
       sodipodi:nodetypes="ccccc" />
    <path
       style="fill:none;fill-opacity:1;stroke:#ff0000;stroke-width:0.61159652;stroke-opacity:1"
       d="m 140.57259,228.36572 c 0,4.33776 -3.51645,7.8542 -7.85421,7.8542 -4.33775,0 -7.8542,-3.51645 -7.8542,-7.8542 0,-4.33775 3.51645,-7.8542 7.8542,-7.8542 4.33776,0 7.85421,3.51644 7.85421,7.8542 z"
       id="path4589"
       inkscape:connector-curvature="0"
       sodipodi:nodetypes="sssss" />
    <path
       style="fill:none;fill-opacity:1;stroke:#ff0000;stroke-width:0.61159652;stroke-opacity:1"
       d="m 140.57259,711.63428 c 0,4.33776 -3.51645,7.8542 -7.85421,7.8542 -4.33775,0 -7.8542,-3.51645 -7.8542,-7.8542 0,-4.33775 3.51645,-7.8542 7.8542,-7.8542 4.33776,0 7.85421,3.51644 7.85421,7.8542 z"
       id="circle70"
       inkscape:connector-curvature="0"
       sodipodi:nodetypes="sssss" />
    <path
       style="fill:none;fill-opacity:1;stroke:#ff0000;stroke-width:0.61159652;stroke-opacity:1"
       d="m 1913.1358,257.52673 c 0,4.33776 -3.5164,7.85421 -7.8542,7.85421 -4.3378,0 -7.8542,-3.51645 -7.8542,-7.85421 0,-4.33775 3.5164,-7.8542 7.8542,-7.8542 4.3378,0 7.8542,3.51645 7.8542,7.8542 z"
       id="circle72"
       inkscape:connector-curvature="0"
       sodipodi:nodetypes="sssss" />
    <circle
       r="0"
       cx="132.71838"
       cy="571.63428"
       style="fill:none;fill-opacity:1;stroke:#ff0000;stroke-width:0.61159652;stroke-opacity:1"
       id="ellipse76" />
    <circle
       r="0"
       cx="132.71838"
       cy="571.63428"
       style="fill:none;fill-opacity:1;stroke:#ff0000;stroke-width:0.61159652;stroke-opacity:1"
       id="ellipse78" />
    <path
       style="fill:none;fill-opacity:1;stroke:#ff0000;stroke-width:0.61159652;stroke-opacity:1"
       d="m 1913.1358,571.63428 c 0,4.33775 -3.5164,7.8542 -7.8542,7.8542 -4.3378,0 -7.8542,-3.51645 -7.8542,-7.8542 0,-4.33775 3.5164,-7.8542 7.8542,-7.8542 4.3378,0 7.8542,3.51645 7.8542,7.8542 z"
       id="circle80"
       inkscape:connector-curvature="0"
       sodipodi:nodetypes="sssss" />
    <path
       style="fill:none;fill-opacity:1;stroke:#ff0000;stroke-width:1;stroke-miterlimit:4;stroke-dasharray:none;stroke-opacity:1"
       d="m 1433.0583,248.44748 h 391.1737 v 48.93363 h -391.1737 z"
       id="rect18"
       inkscape:connector-curvature="0"
       sodipodi:nodetypes="ccccc" />
  </g>
</svg>
