<?xml version="1.0" encoding="UTF-8" standalone="no"?>
<svg
   xmlns:dc="http://purl.org/dc/elements/1.1/"
   xmlns:cc="http://creativecommons.org/ns#"
   xmlns:rdf="http://www.w3.org/1999/02/22-rdf-syntax-ns#"
   xmlns:svg="http://www.w3.org/2000/svg"
   xmlns="http://www.w3.org/2000/svg"
   xmlns:sodipodi="http://sodipodi.sourceforge.net/DTD/sodipodi-0.dtd"
   xmlns:inkscape="http://www.inkscape.org/namespaces/inkscape"
   width="19in"
   height="5.75in"
   version="1.1"
   id="svg23"
   sodipodi:docname="4-5-6.svg"
   inkscape:version="0.92.2 5c3e80d, 2017-08-06">
  <metadata
     id="metadata29">
    <rdf:RDF>
      <cc:Work
         rdf:about="">
        <dc:format>image/svg+xml</dc:format>
        <dc:type
           rdf:resource="http://purl.org/dc/dcmitype/StillImage" />
        <dc:title />
      </cc:Work>
    </rdf:RDF>
  </metadata>
  <defs
     id="defs27" />
  <sodipodi:namedview
     pagecolor="#ffffff"
     bordercolor="#666666"
     borderopacity="1"
     objecttolerance="23"
     gridtolerance="21"
     guidetolerance="22"
     inkscape:pageopacity="0"
     inkscape:pageshadow="2"
     inkscape:window-width="1440"
     inkscape:window-height="773"
     id="namedview25"
     showgrid="false"
     inkscape:measure-start="5.89368e-07,539.588"
     inkscape:measure-end="5.89368e-07,-1.22932e-05"
     inkscape:zoom="1.0458444"
     inkscape:cx="442.03304"
     inkscape:cy="269.67386"
     inkscape:window-x="21"
     inkscape:window-y="30"
     inkscape:window-maximized="0"
     inkscape:current-layer="Tue Jul 30 12:24:42 2019"
     units="in" />
  <g
     inkscape:groupmode="layer"
     id="Tue Jul 30 12:24:42 2019"
     transform="translate(-104.55839,-187.7943)">
    <g
       id="render_body.005"
       transform="matrix(1.891626,0,0,1.891626,-24.136243,-644.03303)"
       style="fill:#9e0000;fill-opacity:1;stroke:#ff0000;stroke-opacity:1">
      <!-- start render_body.005 -->
      <g
         id="caras_bordes.render_body.005"
         style="fill:#9e0000;fill-opacity:1;stroke:#ff0000;stroke-opacity:1">
        <path
           style="opacity:0.9;fill:none;fill-opacity:1;stroke:#ff0000;stroke-width:1.891626;stroke-opacity:1"
           d="M 0 12.412109 L 0 112.65234 L 0 552 L 256.92188 552 L 256.92188 501.4082 L 28.324219 501.4082 L 28.324219 82.564453 L 73.591797 33.871094 L 347.19727 33.871094 L 347.19727 501.4082 L 320.80664 501.4082 L 320.80664 552 L 398.46484 552 L 398.46484 501.4082 L 378.46484 501.4082 L 378.46484 394.52734 L 358.57031 394.52734 L 358.57031 33.871094 L 554.10547 33.871094 L 676.10547 95.466797 L 1273.8242 95.466797 L 1313.8242 131.39258 L 1324.6875 131.39258 L 1324.6875 58.927734 L 1723.3125 58.927734 L 1723.3125 131.39258 L 1782.3438 131.39258 L 1782.3438 151.54492 C 1782.3438 182.14296 1796.3438 209.21222 1796.3438 263.69727 C 1796.3438 318.18232 1785.5996 337.53195 1785.5996 361.84766 L 1785.5996 412 L 1824 412 L 1824 112.65234 L 1824 41.671875 L 1803.2227 41.671875 L 1239.2559 41.671875 L 1081.6562 78.248047 L 696.64062 78.248047 L 568.30078 12.412109 L 354.74023 12.412109 L 0 12.412109 z "
           transform="matrix(0.52864573,0,0,0.52864573,68.033868,439.74196)"
           id="polygon18" />
      </g>
    </g>
    <!-- end render_body.005 -->
    <path
       style="fill:none;fill-opacity:1;stroke:#ff0000;stroke-width:0.61159652;stroke-opacity:1"
       d="m 140.57259,228.36572 c 0,4.33776 -3.51645,7.8542 -7.85421,7.8542 -4.33775,0 -7.8542,-3.51645 -7.8542,-7.8542 0,-4.33775 3.51645,-7.8542 7.8542,-7.8542 4.33776,0 7.85421,3.51644 7.85421,7.8542 z"
       id="path4589"
       inkscape:connector-curvature="0"
       sodipodi:nodetypes="sssss" />
    <path
       style="fill:none;fill-opacity:1;stroke:#ff0000;stroke-width:0.61159652;stroke-opacity:1"
       d="m 140.57259,711.63428 c 0,4.33776 -3.51645,7.8542 -7.85421,7.8542 -4.33775,0 -7.8542,-3.51645 -7.8542,-7.8542 0,-4.33775 3.51645,-7.8542 7.8542,-7.8542 4.33776,0 7.85421,3.51644 7.85421,7.8542 z"
       id="circle70"
       inkscape:connector-curvature="0"
       sodipodi:nodetypes="sssss" />
    <path
       style="fill:none;fill-opacity:1;stroke:#ff0000;stroke-width:0.61159652;stroke-opacity:1"
       d="m 1917.1358,257.52673 c 0,4.33776 -3.5164,7.85421 -7.8542,7.85421 -4.3378,0 -7.8542,-3.51645 -7.8542,-7.85421 0,-4.33775 3.5164,-7.8542 7.8542,-7.8542 4.3378,0 7.8542,3.51645 7.8542,7.8542 z"
       id="circle72"
       inkscape:connector-curvature="0"
       sodipodi:nodetypes="sssss" />
    <circle
       r="0"
       cx="132.71838"
       cy="571.63428"
       style="fill:none;fill-opacity:1;stroke:#ff0000;stroke-width:0.61159652;stroke-opacity:1"
       id="ellipse76" />
    <circle
       r="0"
       cx="132.71838"
       cy="571.63428"
       style="fill:none;fill-opacity:1;stroke:#ff0000;stroke-width:0.61159652;stroke-opacity:1"
       id="ellipse78" />
    <path
       style="fill:none;fill-opacity:1;stroke:#ff0000;stroke-width:0.61159652;stroke-opacity:1"
       d="m 1917.1358,571.63428 c 0,4.33775 -3.5164,7.8542 -7.8542,7.8542 -4.3378,0 -7.8542,-3.51645 -7.8542,-7.8542 0,-4.33775 3.5164,-7.8542 7.8542,-7.8542 4.3378,0 7.8542,3.51645 7.8542,7.8542 z"
       id="circle80"
       inkscape:connector-curvature="0"
       sodipodi:nodetypes="sssss" />
    <path
       sodipodi:nodetypes="sssss"
       inkscape:connector-curvature="0"
       id="path16"
       d="m 480.5726,711.63428 c 0,4.33776 -3.51645,7.8542 -7.85421,7.8542 -4.33775,0 -7.8542,-3.51645 -7.8542,-7.8542 0,-4.33775 3.51645,-7.8542 7.8542,-7.8542 4.33776,0 7.85421,3.51644 7.85421,7.8542 z"
       style="fill:none;fill-opacity:1;stroke:#ff0000;stroke-width:0.61159652;stroke-opacity:1" />
  </g>
</svg>
