<?xml version="1.0" encoding="UTF-8" standalone="no"?>
<svg
   xmlns:dc="http://purl.org/dc/elements/1.1/"
   xmlns:cc="http://creativecommons.org/ns#"
   xmlns:rdf="http://www.w3.org/1999/02/22-rdf-syntax-ns#"
   xmlns:svg="http://www.w3.org/2000/svg"
   xmlns="http://www.w3.org/2000/svg"
   xmlns:sodipodi="http://sodipodi.sourceforge.net/DTD/sodipodi-0.dtd"
   xmlns:inkscape="http://www.inkscape.org/namespaces/inkscape"
   width="19in"
   height="5.75in"
   version="1.1"
   id="svg23"
   sodipodi:docname="4-5-6.svg"
   inkscape:version="0.92.2 5c3e80d, 2017-08-06">
  <metadata
     id="metadata29">
    <rdf:RDF>
      <cc:Work
         rdf:about="">
        <dc:format>image/svg+xml</dc:format>
        <dc:type
           rdf:resource="http://purl.org/dc/dcmitype/StillImage" />
        <dc:title></dc:title>
      </cc:Work>
    </rdf:RDF>
  </metadata>
  <defs
     id="defs27" />
  <sodipodi:namedview
     pagecolor="#ffffff"
     bordercolor="#666666"
     borderopacity="1"
     objecttolerance="23"
     gridtolerance="21"
     guidetolerance="22"
     inkscape:pageopacity="0"
     inkscape:pageshadow="2"
     inkscape:window-width="1440"
     inkscape:window-height="773"
     id="namedview25"
     showgrid="false"
     inkscape:measure-start="5.89368e-07,539.588"
     inkscape:measure-end="5.89368e-07,-1.22932e-05"
     inkscape:zoom="0.36976185"
     inkscape:cx="1443.0069"
     inkscape:cy="161.49612"
     inkscape:window-x="21"
     inkscape:window-y="30"
     inkscape:window-maximized="0"
     inkscape:current-layer="Tue Jul 30 12:24:42 2019"
     units="in" />
  <g
     inkscape:groupmode="layer"
     id="Tue Jul 30 12:24:42 2019"
     transform="translate(-104.55839,-187.7943)">
    <g
       id="render_body.005"
       transform="matrix(1.891626,0,0,1.891626,-24.136243,-644.03303)"
       style="fill:#9e0000;fill-opacity:1;stroke:#ff0000;stroke-opacity:1">
      <!-- start render_body.005 -->
      <g
         id="caras_bordes.render_body.005"
         style="fill:#9e0000;fill-opacity:1;stroke:#ff0000;stroke-opacity:1">
        <path
           style="opacity:0.9;fill:none;fill-opacity:1;stroke:#ff0000;stroke-width:1.891626;stroke-opacity:1"
           d="M 0,8.4121094 V 108.65234 548 H 378.46484 V 390.52734 H 358.57031 V 106.67969 H 347.19727 V 497.4082 H 28.324219 V 78.564453 L 73.591797,29.871094 H 554.10547 l 122,61.595703 h 597.71873 l 40,35.925783 h 14.8633 V 54.927734 h 394.625 v 72.464846 h 59.0313 V 408 h 36.539 V 108.65234 37.671875 h -15.6601 -563.9668 L 1081.6562,74.248047 H 696.64062 L 568.30078,8.4121094 H 354.74023 Z"
           transform="matrix(0.52864573,0,0,0.52864573,68.033868,441.85655)"
           id="polygon18"
           inkscape:connector-curvature="0"
           sodipodi:nodetypes="cccccccccccccccccccccccccccccccc" />
      </g>
    </g>
    <!-- end render_body.005 -->
    <path
       style="fill:none;fill-opacity:1;stroke:#ff0000;stroke-width:0.61159652;stroke-opacity:1"
       d="m 140.57259,228.36572 c 0,4.33776 -3.51645,7.8542 -7.85421,7.8542 -4.33775,0 -7.8542,-3.51645 -7.8542,-7.8542 0,-4.33775 3.51645,-7.8542 7.8542,-7.8542 4.33776,0 7.85421,3.51644 7.85421,7.8542 z"
       id="path4589"
       inkscape:connector-curvature="0"
       sodipodi:nodetypes="sssss" />
    <path
       style="fill:none;fill-opacity:1;stroke:#ff0000;stroke-width:0.61159652;stroke-opacity:1"
       d="m 140.57259,711.63428 c 0,4.33776 -3.51645,7.8542 -7.85421,7.8542 -4.33775,0 -7.8542,-3.51645 -7.8542,-7.8542 0,-4.33775 3.51645,-7.8542 7.8542,-7.8542 4.33776,0 7.85421,3.51644 7.85421,7.8542 z"
       id="circle70"
       inkscape:connector-curvature="0"
       sodipodi:nodetypes="sssss" />
    <path
       style="fill:none;fill-opacity:1;stroke:#ff0000;stroke-width:0.61159652;stroke-opacity:1"
       d="m 1913.1358,257.52673 c 0,4.33776 -3.5164,7.85421 -7.8542,7.85421 -4.3378,0 -7.8542,-3.51645 -7.8542,-7.85421 0,-4.33775 3.5164,-7.8542 7.8542,-7.8542 4.3378,0 7.8542,3.51645 7.8542,7.8542 z"
       id="circle72"
       inkscape:connector-curvature="0"
       sodipodi:nodetypes="sssss" />
    <circle
       r="0"
       cx="132.71838"
       cy="571.63428"
       style="fill:none;fill-opacity:1;stroke:#ff0000;stroke-width:0.61159652;stroke-opacity:1"
       id="ellipse76" />
    <circle
       r="0"
       cx="132.71838"
       cy="571.63428"
       style="fill:none;fill-opacity:1;stroke:#ff0000;stroke-width:0.61159652;stroke-opacity:1"
       id="ellipse78" />
    <path
       style="fill:none;fill-opacity:1;stroke:#ff0000;stroke-width:0.61159652;stroke-opacity:1"
       d="m 1913.1358,571.63428 c 0,4.33775 -3.5164,7.8542 -7.8542,7.8542 -4.3378,0 -7.8542,-3.51645 -7.8542,-7.8542 0,-4.33775 3.5164,-7.8542 7.8542,-7.8542 4.3378,0 7.8542,3.51645 7.8542,7.8542 z"
       id="circle80"
       inkscape:connector-curvature="0"
       sodipodi:nodetypes="sssss" />
  </g>
</svg>
