<?xml version="1.0" encoding="UTF-8" standalone="no"?>
<svg
   xmlns:dc="http://purl.org/dc/elements/1.1/"
   xmlns:cc="http://creativecommons.org/ns#"
   xmlns:rdf="http://www.w3.org/1999/02/22-rdf-syntax-ns#"
   xmlns:svg="http://www.w3.org/2000/svg"
   xmlns="http://www.w3.org/2000/svg"
   xmlns:sodipodi="http://sodipodi.sourceforge.net/DTD/sodipodi-0.dtd"
   xmlns:inkscape="http://www.inkscape.org/namespaces/inkscape"
   width="19in"
   height="5.75in"
   version="1.1"
   id="svg23"
   sodipodi:docname="7-8.svg"
   inkscape:version="0.92.2 5c3e80d, 2017-08-06">
  <metadata
     id="metadata29">
    <rdf:RDF>
      <cc:Work
         rdf:about="">
        <dc:format>image/svg+xml</dc:format>
        <dc:type
           rdf:resource="http://purl.org/dc/dcmitype/StillImage" />
        <dc:title />
      </cc:Work>
    </rdf:RDF>
  </metadata>
  <defs
     id="defs27" />
  <sodipodi:namedview
     pagecolor="#ffffff"
     bordercolor="#666666"
     borderopacity="1"
     objecttolerance="23"
     gridtolerance="21"
     guidetolerance="22"
     inkscape:pageopacity="0"
     inkscape:pageshadow="2"
     inkscape:window-width="1440"
     inkscape:window-height="786"
     id="namedview25"
     showgrid="false"
     inkscape:measure-start="28.3242,60.5632"
     inkscape:measure-end="243.197,60.5632"
     inkscape:zoom="0.95459415"
     inkscape:cx="404.54538"
     inkscape:cy="-16.189541"
     inkscape:window-x="0"
     inkscape:window-y="1"
     inkscape:window-maximized="1"
     inkscape:current-layer="Tue Jul 30 12:24:42 2019"
     units="in" />
  <g
     inkscape:groupmode="layer"
     id="Tue Jul 30 12:24:42 2019"
     transform="translate(-104.55839,-187.7943)">
    <g
       id="render_body.005"
       transform="matrix(1.891626,0,0,1.891626,-24.136243,-644.03303)"
       style="fill:#9e0000;fill-opacity:1;stroke:#ff0000;stroke-opacity:1">
      <!-- start render_body.005 -->
      <g
         id="caras_bordes.render_body.005"
         style="fill:#9e0000;fill-opacity:1;stroke:#ff0000;stroke-opacity:1">
        <path
           style="opacity:0.9;fill:none;fill-opacity:1;stroke:#ff0000;stroke-width:1.891626;stroke-opacity:1"
           d="M 28.324219,501.408 V 82.563752 L 73.591797,33.870391 H 554.10547 V 110.67899 H 347.19727 V 501.408 Z M 398.57031,552 v -50.592 h -20 L 378.528,125.4661 H 1786.3438 V 411.9993 H 1824 V 112.65164 41.671173 h -20.7773 -563.9668 L 1081.6562,78.247346 H 696.64062 L 568.30078,12.411407 H 354.74023 -6.9693768e-7 V 552 v 0 z"
           id="path832"
           transform="matrix(0.52864573,0,0,0.52864573,68.033868,439.74196)"
           inkscape:connector-curvature="0"
           sodipodi:nodetypes="ccccccccccccccccccccccccccc" />
      </g>
    </g>
    <!-- end render_body.005 -->
    <path
       style="fill:none;fill-opacity:1;stroke:#ff0000;stroke-width:0.61159652;stroke-opacity:1"
       d="m 140.57259,228.36572 c 0,4.33776 -3.51645,7.8542 -7.85421,7.8542 -4.33775,0 -7.8542,-3.51645 -7.8542,-7.8542 0,-4.33775 3.51645,-7.8542 7.8542,-7.8542 4.33776,0 7.85421,3.51644 7.85421,7.8542 z"
       id="path4589"
       inkscape:connector-curvature="0"
       sodipodi:nodetypes="sssss" />
    <path
       style="fill:none;fill-opacity:1;stroke:#ff0000;stroke-width:0.61159652;stroke-opacity:1"
       d="m 140.57259,711.63428 c 0,4.33776 -3.51645,7.8542 -7.85421,7.8542 -4.33775,0 -7.8542,-3.51645 -7.8542,-7.8542 0,-4.33775 3.51645,-7.8542 7.8542,-7.8542 4.33776,0 7.85421,3.51644 7.85421,7.8542 z"
       id="circle70"
       inkscape:connector-curvature="0"
       sodipodi:nodetypes="sssss" />
    <path
       style="fill:none;fill-opacity:1;stroke:#ff0000;stroke-width:0.61159652;stroke-opacity:1"
       d="m 1917.1358,257.52673 c 0,4.33776 -3.5164,7.85421 -7.8542,7.85421 -4.3378,0 -7.8542,-3.51645 -7.8542,-7.85421 0,-4.33775 3.5164,-7.8542 7.8542,-7.8542 4.3378,0 7.8542,3.51645 7.8542,7.8542 z"
       id="circle72"
       inkscape:connector-curvature="0"
       sodipodi:nodetypes="sssss" />
    <circle
       r="0"
       cx="132.71838"
       cy="571.63428"
       style="fill:none;fill-opacity:1;stroke:#ff0000;stroke-width:0.61159652;stroke-opacity:1"
       id="ellipse76" />
    <circle
       r="0"
       cx="132.71838"
       cy="571.63428"
       style="fill:none;fill-opacity:1;stroke:#ff0000;stroke-width:0.61159652;stroke-opacity:1"
       id="ellipse78" />
    <path
       style="fill:none;fill-opacity:1;stroke:#ff0000;stroke-width:0.61159652;stroke-opacity:1"
       d="m 1917.1358,571.63428 c 0,4.33775 -3.5164,7.8542 -7.8542,7.8542 -4.3378,0 -7.8542,-3.51645 -7.8542,-7.8542 0,-4.33775 3.5164,-7.8542 7.8542,-7.8542 4.3378,0 7.8542,3.51645 7.8542,7.8542 z"
       id="circle80"
       inkscape:connector-curvature="0"
       sodipodi:nodetypes="sssss" />
    <path
       style="fill:none;fill-opacity:1;stroke:#ff0000;stroke-width:0.90481389;stroke-opacity:1"
       d="m 1429.0107,246.48669 h 399.0952 v 54.87561 h -399.0952 z"
       id="rect16"
       inkscape:connector-curvature="0"
       sodipodi:nodetypes="ccccc" />
    <path
       sodipodi:nodetypes="sssss"
       inkscape:connector-curvature="0"
       id="path17"
       d="m 480.5726,711.63428 c 0,4.33776 -3.51645,7.8542 -7.85421,7.8542 -4.33775,0 -7.8542,-3.51645 -7.8542,-7.8542 0,-4.33775 3.51645,-7.8542 7.8542,-7.8542 4.33776,0 7.85421,3.51644 7.85421,7.8542 z"
       style="fill:none;fill-opacity:1;stroke:#ff0000;stroke-width:0.61159652;stroke-opacity:1" />
  </g>
</svg>
