<?xml version="1.0" encoding="UTF-8" standalone="no"?>
<svg
   xmlns:dc="http://purl.org/dc/elements/1.1/"
   xmlns:cc="http://creativecommons.org/ns#"
   xmlns:rdf="http://www.w3.org/1999/02/22-rdf-syntax-ns#"
   xmlns:svg="http://www.w3.org/2000/svg"
   xmlns="http://www.w3.org/2000/svg"
   xmlns:sodipodi="http://sodipodi.sourceforge.net/DTD/sodipodi-0.dtd"
   xmlns:inkscape="http://www.inkscape.org/namespaces/inkscape"
   width="18.125in"
   height="5.5in"
   version="1.1"
   id="svg23"
   sodipodi:docname="9.svg"
   inkscape:version="0.92.2 5c3e80d, 2017-08-06">
  <metadata
     id="metadata29">
    <rdf:RDF>
      <cc:Work
         rdf:about="">
        <dc:format>image/svg+xml</dc:format>
        <dc:type
           rdf:resource="http://purl.org/dc/dcmitype/StillImage" />
        <dc:title></dc:title>
      </cc:Work>
    </rdf:RDF>
  </metadata>
  <defs
     id="defs27">
    <clipPath
       id="clipPath18"
       clipPathUnits="userSpaceOnUse">
      <path
         id="path16"
         d="M 0,93.507 H 93.507 V 0 H 0 Z"
         inkscape:connector-curvature="0" />
    </clipPath>
  </defs>
  <sodipodi:namedview
     pagecolor="#ffffff"
     bordercolor="#666666"
     borderopacity="1"
     objecttolerance="10"
     gridtolerance="10"
     guidetolerance="10"
     inkscape:pageopacity="0"
     inkscape:pageshadow="2"
     inkscape:window-width="1452"
     inkscape:window-height="777"
     id="namedview25"
     showgrid="false"
     inkscape:measure-start="129.436,166.649"
     inkscape:measure-end="129.436,60.6734"
     inkscape:zoom="0.6180637"
     inkscape:cx="952.25028"
     inkscape:cy="393.94904"
     inkscape:window-x="-7"
     inkscape:window-y="0"
     inkscape:window-maximized="0"
     inkscape:current-layer="Tue Jul 30 12:24:42 2019"
     showguides="false"
     units="in" />
  <g
     inkscape:groupmode="layer"
     id="Tue Jul 30 12:24:42 2019"
     transform="translate(-104.55839,-211.79432)">
    <g
       id="render_body.005"
       transform="matrix(1.891626,0,0,1.891626,-24.136243,-624.03303)"
       style="fill:none;stroke:#ff0000;stroke-opacity:1">
      <!-- start render_body.005 -->
      <g
         id="caras_bordes.render_body.005"
         style="fill:none;stroke:#ff0000;stroke-opacity:1">
        <path
           style="opacity:0.9;fill:none;stroke:#ff0000;stroke-opacity:1"
           d="M 68.033868,499.2945 V 446.3032 H 213.2737 326.1725 l 67.8457,45.37722 h 203.5372 l 83.3144,-29.90872 h 291.7946 14.62255 v 37.5228 l 10e-5,158.2495 H 225.81559 l 0,63.4375 H 68.033868 Z"
           id="polygon18"
           inkscape:connector-curvature="0"
           sodipodi:nodetypes="ccccccccccccccc" />
      </g>
    </g>
    <!-- end render_body.005 -->
    <g
       id="g130"
       transform="matrix(0.79999946,0,0,0.79999946,1476.9769,436.03929)">
      <title
         id="title126">Layer 1</title>
      <g
         id="svgg">
        <path
           style="fill:#808080;fill-opacity:1;fill-rule:evenodd;stroke-width:0.70893824"
           inkscape:connector-curvature="0"
           d="m -236.84714,-210.16288 c -0.19496,0.0603 -1.00103,0.18786 -1.79149,0.28286 -0.78976,0.095 -1.72059,0.27507 -2.06727,0.39984 -0.34738,0.12549 -0.83725,0.26302 -1.08963,0.30627 -0.25168,0.0425 -0.75006,0.20701 -1.10737,0.3651 -0.3573,0.15809 -0.70893,0.28712 -0.78125,0.28712 -0.13044,0 -1.56958,0.65648 -2.2608,1.03079 -0.19496,0.10564 -0.64726,0.34668 -1.00456,0.53596 -0.35731,0.19 -0.7295,0.41473 -0.82734,0.4998 -0.0971,0.0851 -0.38424,0.24104 -0.63804,0.34526 -1.49657,0.61819 -6.0359,5.06252 -7.10073,6.95114 -0.19495,0.34596 -0.49554,0.81315 -0.66711,1.03859 -0.45514,0.59693 -1.72272,3.18739 -1.82409,3.72689 -0.0475,0.25451 -0.20843,0.69122 -0.3566,0.97054 -0.14888,0.28003 -0.30414,0.75927 -0.34596,1.06483 -0.0411,0.30555 -0.14675,0.79472 -0.23395,1.08751 -0.64797,2.16013 -0.65293,7.7735 -0.008,9.36507 0.0851,0.21056 0.18928,0.69405 0.23182,1.07404 0.0829,0.74297 0.59055,2.21473 1.1265,3.26679 0.1822,0.35731 0.36865,0.80961 0.41544,1.00457 0.0461,0.19495 0.18362,0.46151 0.30555,0.59196 0.12265,0.13115 0.30981,0.44805 0.41757,0.70539 0.1744,0.41686 0.62103,1.08326 1.61496,2.40827 0.17723,0.23607 0.45443,0.62528 0.61678,0.86419 0.64726,0.95565 2.34091,2.59117 3.80983,3.67939 0.24742,0.18362 0.90177,0.67491 1.45474,1.09177 0.55226,0.41756 1.06483,0.75927 1.13856,0.75998 0.0737,7.1e-4 0.40196,0.18503 0.72878,0.40976 0.32682,0.22545 0.7451,0.44664 0.92871,0.49201 0.18433,0.0461 0.52107,0.20417 0.74864,0.35234 0.22757,0.14746 0.57282,0.30626 0.76778,0.35234 0.19496,0.0461 0.59409,0.20772 0.88759,0.35943 0.2935,0.15172 0.79827,0.32612 1.12296,0.38779 0.32399,0.0617 0.88121,0.24813 1.23852,0.41473 0.3573,0.1666 0.79755,0.30272 0.97833,0.30343 0.18007,7.1e-4 0.73871,0.10138 1.24064,0.22402 2.40614,0.587 7.68418,0.60685 9.13964,0.034 0.17156,-0.0666 0.71602,-0.17865 1.21086,-0.24742 0.49413,-0.0688 1.2052,-0.23324 1.57952,-0.36652 0.37361,-0.13257 0.91594,-0.29492 1.20448,-0.36085 0.89043,-0.20346 3.72122,-1.50933 4.85127,-2.23741 0.29279,-0.18857 0.80748,-0.51823 1.14351,-0.73162 1.54194,-0.97975 3.7432,-2.97825 5.16178,-4.68608 0.39914,-0.47995 0.95565,-1.14494 1.2371,-1.47814 1.76597,-2.08853 1.65112,-2.1417 -4.64709,-2.1417 -5.49782,0 -5.53043,0.005 -6.84693,1.05419 -0.70184,0.55935 -1.48026,0.98826 -3.66946,2.0226 -2.28349,1.07971 -8.92553,1.01165 -11.35223,-0.11485 -1.19739,-0.55651 -2.57699,-1.27892 -2.88538,-1.51216 -0.16234,-0.12265 -0.62599,-0.43813 -1.02937,-0.70114 -0.81812,-0.53312 -2.62095,-2.3395 -2.92792,-2.93288 -0.10918,-0.21056 -0.45868,-0.74864 -0.777,-1.19456 -0.31831,-0.44592 -0.68838,-1.13643 -0.82236,-1.53414 -0.13399,-0.39843 -0.31761,-0.83797 -0.40694,-0.97763 -1.0393,-1.61213 -0.9599,-9.01344 0.11414,-10.59225 0.15455,-0.22757 0.31832,-0.57282 0.36298,-0.76778 0.0454,-0.19495 0.20347,-0.51752 0.35163,-0.71673 0.14746,-0.19851 0.35235,-0.56219 0.45443,-0.80677 0.47995,-1.14707 3.91192,-4.56061 4.87679,-4.84915 0.14037,-0.0418 0.45372,-0.23395 0.69547,-0.42607 0.24245,-0.19212 0.50547,-0.34951 0.58487,-0.34951 0.0794,0 0.43104,-0.15313 0.78125,-0.33958 0.35022,-0.18645 0.92942,-0.40055 1.28672,-0.4757 0.35731,-0.0759 1.10169,-0.27648 1.65396,-0.44663 2.29412,-0.70681 6.57327,-0.38424 9.15735,0.69051 0.3247,0.1347 0.90957,0.36298 1.29949,0.50689 0.38991,0.14391 1.1265,0.5629 1.63764,0.93084 0.51044,0.36864 0.97196,0.66923 1.02655,0.66923 0.0539,0 0.34525,0.21339 0.64655,0.47428 1.00386,0.86916 0.67207,0.82592 6.30388,0.82592 2.7918,0 5.16107,-0.0326 5.26386,-0.0716 0.46152,-0.17724 0.18291,-0.83726 -1.04284,-2.46924 -0.2928,-0.38991 -0.71958,-0.97833 -0.94856,-1.30799 -0.531,-0.76423 -3.31571,-3.55887 -3.78644,-3.79991 -0.19638,-0.10067 -0.51611,-0.31406 -0.71107,-0.47498 -0.86632,-0.7132 -2.16935,-1.61 -2.63441,-1.81276 -0.27932,-0.12194 -0.68342,-0.35518 -0.89752,-0.51894 -0.2141,-0.16306 -0.46364,-0.29705 -0.55439,-0.29705 -0.09,0 -0.43103,-0.13115 -0.75643,-0.29066 -1.06696,-0.52462 -2.72658,-1.11233 -3.37951,-1.1974 -0.35164,-0.0461 -0.98543,-0.21339 -1.40795,-0.37219 -0.53525,-0.20063 -1.10808,-0.30626 -1.89003,-0.34809 -0.61749,-0.0333 -1.38527,-0.1347 -1.70571,-0.22615 -0.66924,-0.19 -4.03599,-0.21481 -4.6159,-0.034 m 84.47142,-0.0199 c -0.20063,0.0482 -0.42678,0.12548 -0.50193,0.17227 -0.27932,0.17227 -0.18858,47.17985 0.0907,47.32943 0.38283,0.20489 7.82314,0.16306 8.10884,-0.0454 0.22331,-0.16305 0.2304,-0.41756 0.26089,-9.53167 0.0227,-6.61652 0.0702,-9.40974 0.16234,-9.52104 0.24884,-0.29988 0.74014,-0.18078 1.17755,0.2857 0.53667,0.57353 1.40512,1.73264 1.40512,1.87585 0,0.0617 0.33249,0.52178 0.73871,1.023 1.14281,1.41008 1.31154,1.63339 1.57243,2.08569 0.13328,0.23183 0.53241,0.80465 0.88617,1.27255 0.35376,0.46861 0.84363,1.13288 1.08893,1.47742 0.24458,0.34384 0.70964,0.97054 1.03221,1.39307 0.32257,0.42253 0.63521,0.87483 0.69476,1.00456 0.0915,0.20134 0.63308,0.92871 1.92902,2.59117 0.14817,0.19 0.37574,0.51895 0.50618,0.73092 0.12974,0.21126 0.48563,0.70327 0.78976,1.09247 0.30484,0.38992 0.63379,0.85853 0.73092,1.04214 0.0971,0.18291 0.46931,0.7054 0.82733,1.15982 0.72737,0.92446 1.19172,1.5384 1.43064,1.89074 0.15809,0.23324 0.31051,0.23679 11.10197,0.26798 12.4766,0.0354 11.38484,0.13186 11.98389,-1.05915 0.20559,-0.40977 0.53383,-0.95778 0.7295,-1.21725 0.33462,-0.44592 0.51894,-0.75856 1.5313,-2.60038 0.22757,-0.41402 0.63947,-1.07192 0.91595,-1.46254 0.27578,-0.38992 0.50193,-0.75219 0.50193,-0.80465 7.1e-4,-0.0525 0.21339,-0.40835 0.47286,-0.79047 0.26018,-0.38282 0.47216,-0.76139 0.47216,-0.84221 0,-0.0808 0.0723,-0.20701 0.16092,-0.28074 0.14817,-0.12265 1.17188,-1.80212 1.27255,-2.08712 0.0439,-0.12619 0.12123,-0.24883 1.471753,-2.35722 0.41615,-0.64938 0.75715,-1.23993 0.75715,-1.31153 7.1e-4,-0.0709 0.16235,-0.35305 0.36085,-0.6267 0.19779,-0.27295 0.41118,-0.63238 0.47428,-0.79898 0.0638,-0.1666 0.22332,-0.44308 0.35589,-0.61394 0.48704,-0.63024 0.82449,-1.15273 1.11657,-1.7291 0.33675,-0.66569 0.94715,-1.73406 1.28673,-2.25371 0.12477,-0.19 0.40409,-0.61253 0.62032,-0.93793 0.21693,-0.3254 0.39417,-0.65364 0.39417,-0.7295 0,-0.0752 0.13399,-0.29633 0.29704,-0.49058 0.16306,-0.19354 0.38141,-0.5551 0.48492,-0.80252 0.1035,-0.24742 0.29279,-0.58487 0.42111,-0.74935 0.37786,-0.48349 1.04214,-1.58022 1.04214,-1.71917 0,-0.0709 0.1354,-0.31194 0.30129,-0.53596 0.1659,-0.22402 0.40552,-0.61961 0.53242,-0.87979 0.64442,-1.32217 1.25624,-1.80071 1.82551,-1.4278 l 0.29421,0.19283 v 14.34465 14.34466 l 0.31123,0.24529 c 0.40055,0.31477 7.16311,0.38283 7.88906,0.0801 0.42253,-0.17653 0.93296,-0.77133 1.07688,-1.2534 0.0482,-0.16235 0.34454,-0.65081 0.65931,-1.08539 0.31406,-0.43458 0.68413,-1.03009 0.82237,-1.32359 0.13753,-0.29279 0.32257,-0.59338 0.41118,-0.6664 0.0886,-0.0737 0.22474,-0.32682 0.30272,-0.56219 0.0773,-0.23607 0.42182,-0.80748 0.76424,-1.27112 0.34241,-0.46294 0.7061,-1.04143 0.80819,-1.28602 0.10208,-0.24387 0.31902,-0.60188 0.48207,-0.79613 0.16377,-0.19425 0.29705,-0.41828 0.29705,-0.49768 0,-0.0794 0.34596,-0.66924 0.76849,-1.30941 0.42182,-0.64088 0.76778,-1.21795 0.76778,-1.28247 0,-0.0652 0.13257,-0.29208 0.29492,-0.50476 0.16305,-0.21339 0.34879,-0.52816 0.41473,-0.69972 0.0652,-0.17227 0.35234,-0.64088 0.63875,-1.04214 0.2857,-0.40126 0.69192,-1.04852 0.90177,-1.43844 0.20984,-0.38991 0.49696,-0.92162 0.63662,-1.18109 0.14037,-0.26018 0.53242,-0.88404 0.872,-1.38597 0.33958,-0.50264 0.66711,-1.04498 0.72808,-1.2052 0.061,-0.16022 0.27223,-0.51469 0.47002,-0.78763 0.19851,-0.27365 0.36014,-0.55155 0.36014,-0.6189 0,-0.0666 0.26586,-0.50618 0.59055,-0.97621 0.3254,-0.47003 0.74651,-1.13855 0.9358,-1.48523 0.18999,-0.34667 0.47853,-0.87483 0.6423,-1.17258 0.16376,-0.29846 0.59338,-0.98471 0.95494,-1.52493 0.36156,-0.54021 0.65718,-1.04355 0.65718,-1.11799 0,-0.0752 0.13612,-0.31973 0.30201,-0.54376 0.16589,-0.22331 0.39842,-0.61961 0.51611,-0.87908 0.50618,-1.11658 1.29026,-1.66246 1.79786,-1.25128 l 0.27933,0.22616 0.0255,14.33685 0.0255,14.33686 0.25309,0.2063 c 0.29492,0.24033 62.6276097,0.33108 63.2557297,0.0914 0.34312,-0.12973 0.40196,-0.48278 0.12052,-0.71602 -0.10067,-0.0837 -0.36653,-0.46578 -0.59197,-0.85002 -0.22473,-0.38425 -0.74864,-1.13785 -1.16266,-1.67522 -0.41473002,-0.53667 -0.84718002,-1.1577 -0.96132002,-1.3796 -0.11484,-0.22189 -0.51256,-0.77558 -0.88546,-1.23071 -0.37289998,-0.45443 -0.75785998,-0.98614 -0.85710998,-1.18109 -0.0985,-0.19496 -0.44734,-0.70044 -0.77628,-1.12296 -0.32824,-0.42253 -0.70256,-0.90532 -0.83159,-1.07334 -1.12225,-1.45899 -0.92233,-2.35509 0.37503,-1.67593 0.9599,0.50264 2.68757998,0.47358 3.67513998,-0.0631 0.42748002,-0.23182 0.86561002,-0.37786 1.13430002,-0.37786 0.29137,0 0.61252,-0.11768 0.95848,-0.35234 0.2857,-0.19354 0.57282,-0.35305 0.63805,-0.35447 0.0652,-0.001 0.3573,-0.16164 0.65009,-0.3566 0.29208,-0.19425 0.63805,-0.35305 0.76778,-0.35234 0.14959,0 0.928,-0.70539 2.12682,-1.92902 1.04001,-1.06057 2.12965,-2.14099 2.42244,-2.39976 0.6593103,-0.58487 1.0541903,-1.10098 1.4703403,-1.92264 0.17723,-0.35021 0.58345,-0.88688 0.90247,-1.19243 0.71674,-0.68767 0.86136,-1.18109 0.44734,-1.5306 -1.07758,-0.90957 -1.75036,-1.42496 -1.86025,-1.42496 -0.21623,0 -2.4047203,2.28136 -2.5727403,2.68333 -0.45159,1.07829 -3.5539,4.3784 -4.36847,4.64709 -0.35093,0.11555 -0.7848,0.38424 -2.01977,1.25127 -0.89397002,0.6267 -4.2515,0.53029 -4.9888,-0.1432 -0.23182,-0.21198 -0.74013,-0.64726 -1.13004,-0.96629 -0.38992,-0.31973 -0.97054,-0.89538 -1.29098,-1.27963 -0.32044,-0.38424 -0.93722,-1.04923 -1.37109,-1.47884 -0.44308,-0.43742 -0.82662,-0.93013 -0.87412,-1.12225 -0.11272,-0.4516 -0.84364,-1.54762 -1.13784,-1.705 -0.1269,-0.0681 -0.44167,-0.54234 -0.6990197,-1.05348 -0.26372,-0.52462 -0.61536,-1.03434 -0.80677,-1.17117 -0.18716,-0.13328 -0.54092,-0.63804 -0.78692,-1.12296 -0.25805,-0.5076 -0.69476,-1.12295 -1.0308,-1.45261 -0.32115,-0.31477 -0.95139,-1.08539 -1.40015,-1.71209 -0.89326,-1.24773 -1.52918,-1.85954 -2.38629,-2.29767 -0.30768,-0.15738 -0.64442,-0.41614 -0.74793,-0.57494 -0.10421,-0.1581 -0.38424,-0.35022 -0.62244,-0.42608 -0.23892,-0.0752 -0.71816,-0.41047 -1.06554,-0.74438 -0.56502,-0.54234 -0.93367,-0.98684 -2.52311,-3.04348 -0.24033,-0.31122 -0.52816,-0.74084 -0.63804,-0.95494 -0.1106,-0.2141 -0.48988,-0.7295 -0.84293,-1.14635 -0.35305,-0.41615 -0.68625,-0.8727 -0.74013,-1.01449 -0.0539,-0.1425 -0.52745,-0.82733 -1.05278,-1.5228 -0.52532,-0.69476 -1.04143,-1.43489 -1.14777,-1.64332 -0.10634,-0.20843 -0.47144,-0.69831 -0.81031,-1.08822 -0.33959,-0.38992 -0.71249,-0.89539 -0.82875,-1.12225 -0.11627,-0.22757 -0.58984,-0.91878 -1.05278,-1.53627 -0.46364,-0.61748 -0.98826,-1.3725 -1.16691,-1.67806 -0.5636,-0.96486 -0.33107,-0.92162 -4.9413,-0.92162 -3.28026,0 -4.12035,0.0319 -4.22598,0.15881 -0.095,0.11484 -0.14037,5.42975 -0.16235,19.21081 l -0.0305,19.05201 -0.27861,0.22615 c -0.43387,0.35163 -12.36034,0.35163 -12.79421,0 l -0.27861,-0.22615 -0.0291,-19.12219 -0.0284,-19.1222 -0.25025,-0.2063 c -0.22545,-0.18574 -0.57921,-0.20701 -3.50287,-0.20701 -3.97998,0 -4.66339,0.0943 -5.07812,0.70326 -0.48633,0.71391 -1.08042,1.70004 -1.28176,2.12824 -0.10634,0.22544 -0.4204,0.73091 -0.69831,1.12296 -0.2779,0.39204 -0.65789,0.99464 -0.84434,1.33847 -0.18645,0.34384 -0.47924,0.88617 -0.6501,1.20449 -0.17156,0.31831 -0.56502,0.94076 -0.87483,1.38314 -0.3091,0.44237 -0.63946,0.98684 -0.73304,1.21015 -0.0936,0.22332 -0.29492,0.56928 -0.44663,0.76849 -0.15242,0.19921 -0.33037,0.50406 -0.3963,0.67704 -0.0659,0.17298 -0.38212,0.68271 -0.70327,1.13217 -0.32044,0.44947 -0.69901,1.05207 -0.8408,1.33919 -0.44521,0.90106 -0.99322,1.83261 -1.51429,2.57274 -0.27719,0.39346 -0.55935,0.86349 -0.62883,1.04497 -0.0688,0.18078 -0.2538,0.49839 -0.41189,0.7054 -0.15809,0.20701 -0.33462,0.50193 -0.39275,0.65435 -0.0581,0.15313 -0.4041,0.7139 -0.76849,1.2456 -0.36439,0.53241 -0.66215,1.01591 -0.66215,1.07546 0,0.0596 -0.17865,0.36794 -0.397,0.68554 -0.21907,0.31761 -0.43458,0.69547 -0.48066,0.83939 -0.0454,0.14391 -0.39843,0.72382 -0.78409,1.28956 -0.38566,0.56502 -0.70185,1.09318 -0.70185,1.17329 0,0.0808 -0.13328,0.30484 -0.29704,0.49909 -0.16306,0.19425 -0.37291,0.53596 -0.46649,0.75927 -0.0929,0.22332 -0.44095,0.79969 -0.77274,1.28035 -0.33249,0.48137 -0.71035,1.08751 -0.8408,1.34769 -0.75076,1.49728 -0.98684,1.83119 -1.2931,1.83119 -0.60685,0 -0.58346,0.60968 -0.58346,-15.00823 0,-11.10765 -0.0326,-14.51622 -0.14179,-14.6254 -0.1588,-0.1588 -8.08047,-0.20772 -8.32151,-0.051 -0.19071,0.12336 -1.6653,2.33808 -1.76313,2.64789 -0.0454,0.14178 -0.23537,0.46931 -0.42182,0.72737 -0.18716,0.25805 -0.34029,0.53241 -0.34029,0.60968 0,0.0766 -0.13328,0.32115 -0.29634,0.54305 -0.16376,0.2219 -0.47357,0.64372 -0.68838,0.93863 -0.21551,0.29421 -0.45159,0.70611 -0.5239,0.91524 -0.073,0.20914 -0.26869,0.55794 -0.43458,0.77558 -0.16589,0.21765 -0.3013,0.44663 -0.3013,0.50831 0,0.0624 -0.34596,0.63734 -0.76849,1.27822 -0.42253,0.64088 -0.76778,1.21795 -0.76778,1.28247 0,0.0645 -0.13399,0.29279 -0.29704,0.5076 -0.16377,0.2141 -0.40481,0.61819 -0.53525,0.8968 -0.13116,0.27932 -0.42607,0.77345 -0.65577,1.09886 -0.2297,0.32469 -0.57779,0.88263 -0.77416,1.24064 -0.60118,1.0946 -0.96699,1.69791 -1.4597,2.40756 -0.26019,0.37361 -0.65861,1.01874 -0.88618,1.43205 -0.22757,0.41402 -0.61748,1.05632 -0.866323,1.4271 -0.24884,0.37077 -0.50476,0.81315 -0.56857,0.98259 -0.0645,0.16943 -0.21622,0.41472 -0.33745,0.54446 -0.12123,0.12974 -0.33108,0.4757 -0.46648,0.76778 -0.32541,0.70256 -0.90036,1.6816 -1.4831,2.52453 -0.26018,0.37574 -0.60544,0.93225 -0.76778,1.23568 -0.16235,0.30413 -0.57495,0.97195 -0.91595,1.48381 -0.341,0.51185 -0.62032,0.9996 -0.62032,1.08396 0,0.0837 -0.13187,0.3091 -0.29279,0.50122 -0.16164,0.19142 -0.40055,0.58062 -0.53242,0.86562 -0.13115,0.28428 -0.47782,0.85285 -0.7699,1.26332 -0.2928,0.41048 -0.53171,0.78834 -0.53171,0.8408 0,0.0517 -0.21268,0.40764 -0.47215,0.78976 -0.26018,0.38283 -0.47286,0.75431 -0.47286,0.82591 0,0.0716 -0.31902,0.6026 -0.70894,1.17897 -0.38992,0.57707 -0.70894,1.10311 -0.70894,1.16975 0,0.0666 -0.18645,0.38282 -0.41402,0.70255 -0.22757,0.31974 -0.41331,0.64443 -0.41331,0.72029 0,0.0766 -0.15951,0.35943 -0.35447,0.62812 -0.19496,0.26939 -0.35447,0.54588 -0.35447,0.61394 0,0.0688 -0.13044,0.25521 -0.28995,0.41472 l -0.28996,0.28996 h -6.54066 c -5.05261,0 -6.5832,-0.0333 -6.72995,-0.14746 -0.17015,-0.13328 -1.02867,-1.18676 -2.06089,-2.53162 -0.20843,-0.27081 -0.45939,-0.64868 -0.55722,-0.83867 -0.0985,-0.19071 -0.44025,-0.66002 -0.75999,-1.04356 -0.31902,-0.38282 -0.69476,-0.90957 -0.83371,-1.16904 -0.13966,-0.26018 -0.65293,-0.97762 -1.14068,-1.59511 -2.00275,-2.53374 -1.9432,-3.25686 0.31477,-3.83535 0.69405,-0.17795 1.62063,-0.66357 2.16935,-1.13714 0.12974,-0.11201 0.42182,-0.28287 0.64939,-0.37999 0.86774,-0.36865 3.33839,-2.83008 3.97076,-3.95588 0.17227,-0.30697 0.41615,-0.7061 0.54163,-0.88759 0.12477,-0.18078 0.30343,-0.54305 0.39559,-0.80535 0.0922,-0.2616 0.26939,-0.6182 0.39346,-0.7926 0.12335,-0.17439 0.30555,-0.60968 0.40409,-0.96699 0.0992,-0.35801 0.26798,-0.94288 0.37645,-1.30019 0.90602,-2.99243 0.0163,-7.74374 -2.01055,-10.73617 -0.19212,-0.28357 -0.46294,-0.70184 -0.60118,-0.9287 -0.36794,-0.60189 -2.00913,-2.23458 -2.74855,-2.73367 -1.64687,-1.11162 -1.98999,-1.32075 -2.37565,-1.44836 -0.22757,-0.0751 -0.55723,-0.2375 -0.73305,-0.36085 -0.6742,-0.47286 -3.01228,-1.15344 -3.99345,-1.16337 -0.3573,-0.004 -0.96841,-0.0829 -1.35832,-0.17723 -0.77133,-0.18645 -16.62389,-0.24388 -17.37962,-0.0638 m -30.06041,0.12052 c -0.16234,0.0546 -0.64229,0.10492 -1.06624,0.1113 -1.0946,0.0163 -2.68191,0.23111 -3.14556,0.42465 -0.21693,0.0907 -0.85994,0.24742 -1.42922,0.34809 -1.03505,0.18362 -2.80456,0.78905 -3.34902,1.14565 -0.1588,0.10421 -0.44947,0.22402 -0.64655,0.26727 -0.19638,0.0432 -0.54092,0.19495 -0.76566,0.33674 -0.22544,0.1425 -0.67491,0.39842 -0.9996,0.56857 -1.59157,0.83655 -2.05025,1.10878 -2.54083,1.51075 -0.29209,0.23962 -0.74439,0.59338 -1.00386,0.78692 -1.44269,1.07191 -4.46206,4.34437 -5.13555,5.56587 -0.13966,0.25238 -0.43883,0.72525 -0.66498,1.04994 -0.39205,0.56361 -1.16124,2.06089 -1.69011,3.29161 -1.99425,4.63929 -2.10555,11.70102 -0.24742,15.73134 0.18007,0.38991 0.36014,0.90035 0.40126,1.13359 0.0858,0.492 0.95139,2.23741 1.47459,2.97187 0.19708,0.27648 0.49696,0.75998 0.66569,1.07475 0.86065,1.60078 5.07316,5.87993 6.51302,6.61581 0.20417,0.10492 0.70964,0.4204 1.12225,0.70114 1.1903,0.8089 3.92397,2.08924 4.95477,2.32035 0.28924,0.0645 0.7699,0.22616 1.06908,0.35873 0.55013,0.24316 1.15627,0.39558 3.41212,0.85923 1.81062,0.37148 6.32585,0.37361 8.15279,0.003 0.68199,-0.13824 1.66104,-0.33391 2.17502,-0.43458 0.51469,-0.10067 1.12154,-0.2935 1.34911,-0.42749 0.22828,-0.1347 0.70681,-0.29846 1.06482,-0.3651 0.35802,-0.0659 0.94147,-0.27507 1.29665,-0.46436 0.35518,-0.18999 0.73446,-0.34525 0.84293,-0.34525 0.10776,0 0.37503,-0.13115 0.59338,-0.29208 0.21765,-0.16093 0.58629,-0.35589 0.81953,-0.43245 0.23254,-0.0766 0.73092,-0.35731 1.10737,-0.62316 0.37715,-0.26585 0.91311,-0.61607 1.19172,-0.77912 1.70783,-0.99535 6.57399,-5.84804 6.57399,-6.55626 0,-0.0801 0.15951,-0.34668 0.35446,-0.59197 0.4679,-0.58913 0.70114,-1.33493 0.46436,-1.48451 -0.0943,-0.0596 -2.49334,-0.10776 -5.43047,-0.10847 -5.86575,-0.002 -5.26386,-0.0851 -6.43645,0.88617 -2.91941,2.42032 -8.05283,3.72831 -12.05195,3.07183 -0.58488,-0.0964 -1.23781,-0.17582 -1.4512,-0.17723 -0.21339,-7.1e-4 -0.6508,-0.13541 -0.97195,-0.29776 -0.32186,-0.16305 -0.85924,-0.35518 -1.19527,-0.42749 -0.33533,-0.0716 -0.85215,-0.28428 -1.14777,-0.47144 -0.29563,-0.18787 -0.59622,-0.341 -0.66853,-0.341 -0.0716,0 -0.46507,-0.25309 -0.87483,-0.56148 -0.40977,-0.30839 -0.97125,-0.69405 -1.24915,-0.8564 -0.62528,-0.36652 -1.78156,-1.4753 -2.03394,-1.94958 -0.10351,-0.19496 -0.44664,-0.65506 -0.76282,-1.02158 -0.31619,-0.36652 -0.66073,-0.87199 -0.76495,-1.12225 -0.10492,-0.25096 -0.29137,-0.59834 -0.41543,-0.77274 -0.12407,-0.1744 -0.30272,-0.53738 -0.39772,-0.80535 -0.095,-0.26869 -0.27507,-0.63238 -0.39984,-0.8089 -0.53029,-0.74439 -0.94076,-4.42165 -0.7373,-6.61014 0.24317,-2.62024 0.43529,-3.32847 1.40228,-5.16462 0.10209,-0.19496 0.32753,-0.62457 0.49981,-0.95423 0.17298,-0.32966 0.58983,-0.93013 0.92658,-1.33493 0.33674,-0.4048 0.61252,-0.77913 0.61252,-0.8323 0,-0.14391 1.77376,-1.90066 1.91981,-1.90066 0.0702,0 0.54233,-0.32115 1.04993,-0.7139 0.5076,-0.39275 1.09744,-0.77345 1.31012,-0.84718 0.21339,-0.073 0.57353,-0.25239 0.8011,-0.39772 0.22686,-0.14533 0.70185,-0.32327 1.05419,-0.39629 0.35305,-0.073 0.81599,-0.24033 1.02938,-0.3722 0.25167,-0.15525 0.75431,-0.28003 1.42709,-0.35447 0.5707,-0.0631 1.54336,-0.17085 2.16085,-0.23962 3.61204,-0.40197 8.38815,1.023 11.12324,3.31996 l 0.84647,0.71036 h 5.30286 c 6.74271,0 6.42582,0.43103 2.86199,-3.88499 -1.19598,-1.44765 -4.4337,-4.23307 -5.50704,-4.73641 -0.30555,-0.14321 -0.61536,-0.3332 -0.68909,-0.42182 -0.073,-0.0879 -0.32823,-0.22332 -0.56715,-0.29917 -0.2382,-0.0766 -0.60968,-0.27082 -0.82449,-0.43175 -0.21552,-0.16022 -0.58275,-0.34454 -0.8167,-0.40905 -0.23324,-0.0645 -0.61607,-0.24104 -0.84931,-0.39134 -0.23324,-0.151 -0.61039,-0.31193 -0.83796,-0.35801 -0.22757,-0.0461 -0.54589,-0.15171 -0.70894,-0.23395 -1.51784,-0.76991 -8.30238,-1.74753 -9.45228,-1.36258 m 161.557283,15.94761 c 0.3729,0.14178 1.88011,2.4196 1.82977,2.76556 -0.0248,0.17157 -0.16235,0.28004 -0.44947,0.35306 -1.57171,0.40055 -2.57344,0.72737 -2.7762,0.90602 -0.13044,0.11414 -0.36936,0.27578 -0.5317,0.35943 -1.56392,0.80252 -3.94595,3.1569 -6.91215,6.83133 -0.90886,1.12579 -1.14352,1.10453 -2.58195,-0.23891 -1.12013,-1.0464 -1.12013,-1.06766 0.0206,-2.41606 2.68191,-3.16967 6.19115,-6.54492 7.48567,-7.19998 0.21623,-0.10918 0.4991,-0.29208 0.62883,-0.40622 0.12974,-0.11414 0.44876,-0.27578 0.70823,-0.35943 0.25947,-0.0829 0.7061,-0.27578 0.99252,-0.4282 0.54801,-0.29138 1.10452,-0.34951 1.58589,-0.1666"
           id="path0" />
      </g>
    </g>
    <g
       transform="matrix(4.1241515,0,0,-4.1241515,1447.2017,479.67082)"
       id="g10"
       style="fill:#808080;fill-opacity:1">
      <g
         style="fill:#808080;fill-opacity:1"
         id="g12">
        <g
           style="fill:#808080;fill-opacity:1"
           clip-path="url(#clipPath18)"
           id="g14">
          <g
             style="fill:#808080;fill-opacity:1"
             transform="translate(69.0172,49.3868)"
             id="g20">
            <path
               id="path22"
               style="fill:#808080;fill-opacity:1;fill-rule:nonzero;stroke:none"
               d="M 0,0 V -7.026 H -2.017 V 0 H -4.843 V 1.747 H 2.813 V 0 Z m -8.276,-5.615 c -0.176,-0.333 -0.415,-0.62 -0.718,-0.863 -0.302,-0.243 -0.658,-0.433 -1.067,-0.569 -0.409,-0.136 -0.849,-0.204 -1.321,-0.204 -0.435,0 -0.833,0.041 -1.193,0.124 -0.361,0.082 -0.685,0.191 -0.973,0.327 -0.289,0.135 -0.548,0.29 -0.779,0.463 -0.232,0.174 -0.431,0.352 -0.598,0.534 l 1.278,1.384 c 0.115,-0.125 0.248,-0.252 0.4,-0.381 0.152,-0.129 0.321,-0.247 0.509,-0.352 0.187,-0.106 0.392,-0.191 0.614,-0.255 0.221,-0.065 0.46,-0.097 0.716,-0.097 0.15,0 0.3,0.021 0.447,0.064 0.149,0.043 0.285,0.107 0.41,0.191 0.124,0.084 0.223,0.185 0.296,0.303 0.073,0.119 0.11,0.253 0.11,0.404 0,0.327 -0.158,0.581 -0.474,0.762 -0.316,0.181 -0.817,0.36 -1.504,0.536 -0.333,0.078 -0.64,0.192 -0.922,0.342 -0.283,0.151 -0.526,0.332 -0.729,0.543 -0.204,0.211 -0.361,0.453 -0.474,0.726 -0.112,0.274 -0.169,0.578 -0.169,0.914 0,0.368 0.065,0.714 0.195,1.038 0.13,0.325 0.328,0.611 0.595,0.859 0.266,0.247 0.597,0.443 0.993,0.589 0.397,0.145 0.865,0.218 1.406,0.218 0.446,0 0.842,-0.046 1.187,-0.137 0.344,-0.092 0.637,-0.201 0.877,-0.329 0.24,-0.127 0.437,-0.258 0.591,-0.391 0.155,-0.134 0.271,-0.239 0.348,-0.316 l -1.143,-1.266 c -0.099,0.078 -0.212,0.162 -0.338,0.255 -0.127,0.093 -0.268,0.179 -0.425,0.258 -0.156,0.08 -0.33,0.147 -0.521,0.201 -0.19,0.053 -0.391,0.08 -0.601,0.08 -0.142,0 -0.28,-0.022 -0.416,-0.067 -0.135,-0.046 -0.258,-0.105 -0.367,-0.178 -0.11,-0.073 -0.198,-0.161 -0.264,-0.265 -0.066,-0.103 -0.1,-0.211 -0.1,-0.323 0,-0.301 0.159,-0.544 0.477,-0.73 0.318,-0.185 0.753,-0.34 1.307,-0.465 0.327,-0.077 0.645,-0.184 0.955,-0.319 0.311,-0.136 0.588,-0.314 0.832,-0.536 0.244,-0.222 0.441,-0.493 0.591,-0.814 0.15,-0.321 0.225,-0.711 0.225,-1.172 0,-0.392 -0.088,-0.754 -0.263,-1.086 m -10.307,1.854 c 0,-0.527 -0.086,-1.01 -0.257,-1.449 -0.172,-0.439 -0.418,-0.813 -0.74,-1.124 -0.321,-0.31 -0.71,-0.553 -1.167,-0.729 -0.456,-0.175 -0.965,-0.263 -1.526,-0.263 -0.56,0 -1.067,0.086 -1.522,0.257 -0.455,0.171 -0.841,0.414 -1.159,0.729 -0.318,0.315 -0.563,0.691 -0.734,1.13 -0.171,0.439 -0.256,0.922 -0.256,1.449 v 5.446 h 1.985 v -5.271 c 0,-0.295 0.029,-0.56 0.086,-0.795 0.058,-0.235 0.153,-0.437 0.284,-0.606 0.131,-0.169 0.304,-0.301 0.521,-0.394 0.217,-0.094 0.481,-0.14 0.795,-0.14 0.309,0 0.57,0.046 0.785,0.14 0.214,0.093 0.388,0.225 0.521,0.394 0.133,0.169 0.227,0.371 0.283,0.606 0.056,0.235 0.084,0.5 0.084,0.795 v 5.271 h 2.017 z M -30.68,-7.026 c -0.596,0 -1.078,0.482 -1.078,1.077 0,0.595 0.482,1.078 1.078,1.078 0.595,0 1.077,-0.483 1.077,-1.078 0,-0.595 -0.482,-1.077 -1.077,-1.077 m -1.702,3.551 -1.067,3.314 -1.092,-3.314 -0.054,-0.181 h -1.899 l 2.018,5.403 h 2.196 l 1.977,-5.4 -2.023,-0.005 z m -3.708,-3.551 c -0.595,0 -1.078,0.482 -1.078,1.077 0,0.595 0.483,1.078 1.078,1.078 0.595,0 1.078,-0.483 1.078,-1.078 0,-0.595 -0.483,-1.077 -1.078,-1.077 M -39.541,0 h -3.912 v -1.991 h 2.974 v -1.696 h -2.974 v -3.339 h -1.984 v 8.773 h 5.896 z"
               inkscape:connector-curvature="0" />
          </g>
        </g>
      </g>
    </g>
    <path
       style="fill:none;fill-opacity:1;stroke:#ff0000;stroke-width:0.48000056;stroke-opacity:1"
       d="m 140.63838,248.36572 a 7.9199996,7.9199996 0 0 1 -7.92,7.92 7.9199996,7.9199996 0 0 1 -7.92,-7.92 7.9199996,7.9199996 0 0 1 7.92,-7.92 7.9199996,7.9199996 0 0 1 7.92,7.92 z"
       id="path33"
       inkscape:connector-curvature="0" />
    <path
       style="fill:none;fill-opacity:1;stroke:#ff0000;stroke-width:0.48000056;stroke-opacity:1"
       d="m 140.63838,711.63428 a 7.9199996,7.9199996 0 0 1 -7.92,7.92 7.9199996,7.9199996 0 0 1 -7.92,-7.92 7.9199996,7.9199996 0 0 1 7.92,-7.92 7.9199996,7.9199996 0 0 1 7.92,7.92 z"
       id="circle52"
       inkscape:connector-curvature="0" />
    <path
       style="fill:none;fill-opacity:1;stroke:#ff0000;stroke-width:0.48000056;stroke-opacity:1"
       d="m 1833.2016,277.55429 a 7.9199996,7.9199996 0 0 1 -7.92,7.92 7.9199996,7.9199996 0 0 1 -7.92,-7.92 7.9199996,7.9199996 0 0 1 7.92,-7.92 7.9199996,7.9199996 0 0 1 7.92,7.92 z"
       id="circle54"
       inkscape:connector-curvature="0" />
    <path
       style="fill:none;fill-opacity:1;stroke:#ff0000;stroke-width:0.48000056;stroke-opacity:1"
       d="m 1833.2016,591.63428 a 7.9199996,7.9199996 0 0 1 -7.92,7.92 7.9199996,7.9199996 0 0 1 -7.92,-7.92 7.9199996,7.9199996 0 0 1 7.92,-7.92 7.9199996,7.9199996 0 0 1 7.92,7.92 z"
       id="circle72"
       inkscape:connector-curvature="0" />
    <rect
       style="fill:none;fill-opacity:1;stroke:#ff0000;stroke-width:2.59936142;stroke-miterlimit:4;stroke-dasharray:none;stroke-opacity:1"
       id="rect39"
       width="1426.2646"
       height="218.20064"
       x="383.87405"
       y="383.20602" />
  </g>
</svg>
